HIERARCHY
ROOT pelvis
{
  OFFSET 0 100 0
  CHANNELS 6 Xposition Yposition Zposition Zrotation Xrotation Yrotation
  JOINT pelvis_right_femur
  {
    OFFSET -10.78128 -3.44521 -0.5502486
    CHANNELS 3 Zrotation Xrotation Yrotation
    JOINT right_femur_tibia
    {
      OFFSET -0.8047443 -44.0398 -0.1307829
      CHANNELS 3 Zrotation Xrotation Yrotation
      JOINT right_tibia_foot
      {
        OFFSET 3.006224 -47.83518 -5
        CHANNELS 3 Zrotation Xrotation Yrotation
        End Site
        {
          OFFSET 0 -5 15
        }
      }
    }
  }
  JOINT pelvis_left_femur
  {
    OFFSET 10.78128 -3.44521 -0.5502486
    CHANNELS 3 Zrotation Xrotation Yrotation
    JOINT left_femur_tibia
    {
      OFFSET 0.8047443 -44.0398 -0.1307829
      CHANNELS 3 Zrotation Xrotation Yrotation
      JOINT left_tibia_foot
      {
        OFFSET -4.370144 -48.10324 -4.275266
        CHANNELS 3 Zrotation Xrotation Yrotation
        End Site
        {
          OFFSET 0 -5 15
        }
      }
    }
  }
  JOINT pelvis_spine1
  {
    OFFSET 0 6.468898 -3.129235
    CHANNELS 3 Zrotation Xrotation Yrotation
    JOINT spine1
    {
      OFFSET 0 23.15396 4.99043
      CHANNELS 3 Zrotation Xrotation Yrotation
      JOINT spine2
      {
        OFFSET 0 20.79997 -5.064912
        CHANNELS 3 Zrotation Xrotation Yrotation
        JOINT neck
        {
          OFFSET 0 14.38658 9.616178
          CHANNELS 3 Zrotation Xrotation Yrotation
          End Site
          {
            OFFSET 0 20 0
          }
        }
      }
      JOINT right_manubrium
      {
        OFFSET -5.722621 16.35077 3.967754
        CHANNELS 3 Zrotation Xrotation Yrotation
        JOINT right_clavicle
        {
          OFFSET -13.16364 1.694482 -4.693211
          CHANNELS 3 Zrotation Xrotation Yrotation
          JOINT right_humerus
          {
            OFFSET -28.5034 -0.3100689 -2.792744
            CHANNELS 3 Zrotation Xrotation Yrotation
            JOINT right_radius
            {
              OFFSET -25.15693 0.02248979 -1.271978
              CHANNELS 3 Zrotation Xrotation Yrotation
              End Site
              {
                OFFSET -15 0 0
              }
            }
          }
        }
      }
      JOINT left_manubrium
      {
        OFFSET 5.722621 16.35077 3.967754
        CHANNELS 3 Zrotation Xrotation Yrotation
        JOINT left_clavicle
        {
          OFFSET 13.16364 1.694482 -4.693211
          CHANNELS 3 Zrotation Xrotation Yrotation
          JOINT left_humerus
          {
            OFFSET 29.39168 -1.063119 -2.237045
            CHANNELS 3 Zrotation Xrotation Yrotation
            JOINT left_radius
            {
              OFFSET 24.59957 -0.9528479 0.9047498
              CHANNELS 3 Zrotation Xrotation Yrotation
              End Site
              {
                OFFSET 15 -0 -0
              }
            }
          }
        }
      }
    }
  }
}
MOTION
Frames: 13
Frame Time: 0.0416666666667
-231.1867 95.3973 3124.878 1.213797 -9.056514 0.09131873 4.130208 5.03525 3.977296 -0 12.2794 -0 -0.6825457 -11.44567 -5.027083 -1.181148 -12.39351 -4.472394 -0 49.40515 -0 -6.231759 -7.256671 18.20756 0.6979689 -1.45849 5.303515 -0.2505168 14.7502 -5.437581 1.747386 22.40433 3.660176 1.451674 -19.42638 5.735008 -3.086942 -24.53194 11.79033 92.94222 16.14469 -14.53516 -0 0 17.37841 -22.75006 9.979008 11.53532 4.104031 -22.28661 -7.286598 -92.34104 16.40926 25.75754 0 0 -11.36664 6.555424 13.7582 5.669328
-230.9219 95.17395 3130.804 1.048953 -8.145417 -0.7753826 3.947412 8.135494 3.639028 -0 10.5239 -0 -0.4571526 -12.63676 -3.930004 -0.2864857 -17.48581 -3.839452 -0 42.72302 -0 -6.047454 -7.778219 18.58075 0.9780758 -1.670106 5.8796 -0.2824295 14.97838 -5.260145 1.83824 21.7714 3.250062 0.9012554 -19.64382 5.790375 -3.420411 -25.92151 11.74542 92.48698 15.50385 -13.31528 -0 0 19.94028 -22.72759 10.83602 12.23824 3.77577 -21.64216 -7.00676 -93.27864 16.10672 28.53099 0 0 -10.33021 5.694285 13.22617 7.165332
-230.5312 94.58097 3136.798 0.8440932 -7.175222 -1.556976 3.6216 11.12925 3.544237 -0 10.2462 -0 -0.2412132 -13.75053 -3.074818 0.4621938 -21.40529 -3.603407 -0 35.51136 -0 -6.175743 -8.150124 18.88211 1.197332 -1.893367 6.487864 -0.2759752 15.12119 -5.131313 1.907899 21.06598 2.88521 0.3604527 -19.87662 5.862099 -3.684568 -27.21781 11.68726 91.89724 15.06215 -12.17011 -0 0 22.45606 -22.73996 11.78508 12.95808 3.474002 -21.03793 -6.654775 -93.95445 15.73539 30.99294 0 0 -9.81096 4.922397 12.48598 8.552131
-230.0278 93.75807 3142.952 0.6782736 -6.306903 -2.227172 3.103136 14.00047 3.710727 -0 11.6273 -0 0.07241792 -14.436 -2.449009 0.8742648 -24.13064 -3.797774 -0 28.86754 -0 -6.551569 -8.378999 19.20258 1.318367 -2.087796 7.068725 -0.2503718 15.16231 -5.034987 1.944852 20.4043 2.602851 -0.08538091 -20.0628 5.912544 -3.819139 -28.27025 11.63717 91.18042 14.88685 -11.14246 -0 0 24.6631 -22.80689 12.65671 13.62998 3.215046 -20.50656 -6.280303 -94.35763 15.37567 32.93913 0 0 -9.668867 4.292763 11.6491 9.698483
-229.4266 92.86917 3149.358 0.6235632 -5.646504 -2.762889 2.385156 16.49439 4.023538 -0 14.62183 -0 0.542637 -14.14999 -1.982129 0.803393 -25.67118 -4.358202 -0 23.63122 -0 -7.023158 -8.595101 19.55279 1.323772 -2.216132 7.560175 -0.2274683 15.10687 -4.951139 1.945291 19.89603 2.429994 -0.3666574 -20.15503 5.915293 -3.785284 -28.96578 11.61632 90.38149 14.99587 -10.26627 -0 0 26.33672 -22.93089 13.2951 14.19289 3.012944 -20.06835 -5.937911 -94.53258 15.10073 34.24694 0 0 -9.69086 3.830407 10.84799 10.5171
-228.7387 92.09078 3156.087 0.7268212 -5.282847 -3.128256 1.528348 18.20926 4.298841 -0 19.18141 -0 1.152595 -12.39793 -1.633405 0.1848166 -25.99475 -5.143148 -0 20.36801 -0 -7.346063 -8.91305 19.86755 1.220059 -2.255306 7.911534 -0.222418 14.9791 -4.868163 1.912379 19.61112 2.379311 -0.4483572 -20.13463 5.863335 -3.57768 -29.25068 11.63695 89.57782 15.35818 -9.57791 -0 0 27.33447 -23.10038 13.60919 14.602 2.878868 -19.73682 -5.673538 -94.54262 14.95287 34.87628 0 0 -9.690419 3.539292 10.19441 10.97229
-227.9694 91.6068 3163.146 0.9886349 -5.308968 -3.262666 0.6612372 18.68419 4.37595 -0 25.3619 -0 1.827803 -9.064789 -1.473034 -0.9299811 -24.99349 -5.967563 -0 19.28378 -0 -7.222383 -9.329803 20.02194 1.030752 -2.199337 8.091723 -0.2395415 14.81119 -4.787615 1.853164 19.56959 2.449674 -0.3321989 -20.01 5.766687 -3.221322 -29.12633 11.69847 88.85816 15.91272 -9.118613 -0 0 27.60481 -23.29744 13.58491 14.83422 2.820122 -19.52243 -5.515702 -94.43672 14.9417 34.84505 0 0 -9.571202 3.412423 9.752964 11.07137
-227.1208 91.58926 3170.432 1.347532 -5.792782 -3.083572 -0.05446605 17.48277 4.208169 -0 33.16012 -0 2.47601 -4.707706 -1.695345 -2.347632 -22.51613 -6.653026 -0 20.05882 -0 -6.429152 -9.727658 19.85636 0.7845521 -2.055063 8.089106 -0.2737087 14.63018 -4.721233 1.775636 19.75293 2.630706 -0.04545467 -19.80564 5.644924 -2.758189 -28.62713 11.78937 88.30071 16.59248 -8.930135 -0 0 27.16361 -23.50323 13.26258 14.88464 2.840096 -19.43319 -5.473443 -94.23427 15.05791 34.19448 0 0 -9.33793 3.43899 9.53779 10.84825
-226.2022 92.14045 3177.701 1.686167 -6.676597 -2.52116 -0.4837747 14.33711 3.904465 -0 41.99448 -0 2.996115 -0.5937397 -2.512577 -3.747912 -18.5223 -7.109017 -0 21.71149 -0 -5.046094 -10.02428 19.23027 0.5070442 -1.837126 7.907084 -0.3134287 14.45015 -4.686116 1.687524 20.1204 2.906811 0.3710251 -19.5526 5.521189 -2.235856 -27.8011 11.89124 87.9621 17.33836 -9.049736 -0 0 26.06614 -23.69785 12.70863 14.75902 2.938818 -19.47436 -5.538582 -93.92557 15.28731 32.96598 0 0 -9.07916 3.606745 9.523687 10.35061
-225.2445 93.19735 3184.632 1.884907 -7.684707 -1.583328 -0.5809797 9.375641 3.632174 -0 50.09751 -0 3.219589 1.869545 -3.923163 -4.789629 -13.31004 -7.400279 -0 22.81464 -0 -3.608421 -10.39435 18.14226 0.2198921 -1.567695 7.562256 -0.3428431 14.27254 -4.701823 1.596845 20.61632 3.256216 0.8664671 -19.28531 5.419473 -1.705328 -26.70907 11.98228 87.87689 18.09728 -9.504579 -0 0 24.40216 -23.85621 12.00396 14.46939 3.112309 -19.64859 -5.688818 -93.4815 15.61299 31.20642 0 0 -8.946769 3.901294 9.660519 9.635666
-224.3061 94.4784 3191.009 1.915592 -8.438689 -0.3887391 -0.433679 3.249118 3.395246 -0 54.76977 -0 2.940705 2.220336 -5.55951 -5.295916 -7.541477 -7.666381 -0 22.30234 -0 -2.821071 -11.2648 16.84558 -0.0554775 -1.279466 7.087094 -0.3441145 14.09296 -4.787123 1.512726 21.17056 3.646705 1.379488 -19.04122 5.361955 -1.223194 -25.43921 12.04167 88.05804 18.81244 -10.29925 -0 0 22.31388 -23.94617 11.24415 14.03553 3.35028 -19.95509 -5.891597 -92.87173 16.00489 29.00053 0 0 -9.124035 4.305685 9.888671 8.768569
-223.4544 95.58518 3196.876 1.875173 -8.760653 0.8886527 -0.2341279 -3.130586 2.983216 -0 54.12193 -0 2.180817 1.307738 -6.930455 -5.360952 -1.891952 -7.924195 -0 20.2332 -0 -2.91531 -12.906 15.7196 -0.2970328 -1.013651 6.530979 -0.3033155 13.91021 -4.952495 1.444154 21.70693 4.037017 1.84644 -18.85601 5.362998 -0.8453904 -24.11215 12.05673 88.49083 19.42327 -11.39686 -0 0 20.00117 -23.93799 10.52929 13.48852 3.634991 -20.38615 -6.111725 -92.09035 16.40961 26.49944 0 0 -9.761154 4.803319 10.15782 7.811898
-222.7322 96.20523 3202.475 1.874121 -8.74036 2.097595 -0.1288462 -9.074151 2.25165 -0 48.6328 -0 1.271819 0.2380887 -7.80911 -5.224928 3.261493 -8.061569 -0 17.53541 -0 -3.504852 -15.09764 14.95471 -0.487541 -0.8081339 5.952218 -0.2178126 13.73066 -5.191621 1.396339 22.16398 4.389408 2.221614 -18.75387 5.423032 -0.6096351 -22.85658 12.02876 89.12609 19.88369 -12.71063 -0 0 17.68329 -23.82288 9.936609 12.87011 3.944607 -20.92308 -6.321449 -91.17411 16.75795 23.90654 0 0 -10.90123 5.381991 10.44151 6.808877
